solid Benchy
  facet normal 0 0 -1
    outer loop
      vertex 0 0 0
      vertex 0 31 0
      vertex 60 15.5 0
    endloop
  endfacet
  facet normal 0 0 1
    outer loop
      vertex 0 0 48
      vertex 60 15.5 48
      vertex 0 31 48
    endloop
  endfacet
  facet normal -1 0 0
    outer loop
      vertex 0 0 0
      vertex 0 0 48
      vertex 0 31 48
    endloop
  endfacet
  facet normal -1 0 0
    outer loop
      vertex 0 0 0
      vertex 0 31 48
      vertex 0 31 0
    endloop
  endfacet
  facet normal 0.24 0.97 0
    outer loop
      vertex 0 31 0
      vertex 0 31 48
      vertex 60 15.5 48
    endloop
  endfacet
  facet normal 0.24 0.97 0
    outer loop
      vertex 0 31 0
      vertex 60 15.5 48
      vertex 60 15.5 0
    endloop
  endfacet
  facet normal 0.24 -0.97 0
    outer loop
      vertex 60 15.5 0
      vertex 60 15.5 48
      vertex 0 0 48
    endloop
  endfacet
  facet normal 0.24 -0.97 0
    outer loop
      vertex 60 15.5 0
      vertex 0 0 48
      vertex 0 0 0
    endloop
  endfacet
endsolid Benchy
