solid LaptopStand
  facet normal 0 -1 0
    outer loop
      vertex 0 0 0
      vertex 220 0 0
      vertex 0 0 110
    endloop
  endfacet
  facet normal 0 1 0
    outer loop
      vertex 0 30 0
      vertex 0 30 110
      vertex 220 30 0
    endloop
  endfacet
  facet normal -1 0 0
    outer loop
      vertex 0 0 0
      vertex 0 0 110
      vertex 0 30 110
    endloop
  endfacet
  facet normal -1 0 0
    outer loop
      vertex 0 0 0
      vertex 0 30 110
      vertex 0 30 0
    endloop
  endfacet
  facet normal 0 0 -1
    outer loop
      vertex 0 0 0
      vertex 0 30 0
      vertex 220 30 0
    endloop
  endfacet
  facet normal 0 0 -1
    outer loop
      vertex 0 0 0
      vertex 220 30 0
      vertex 220 0 0
    endloop
  endfacet
  facet normal 0.45 0 0.89
    outer loop
      vertex 220 0 0
      vertex 220 30 0
      vertex 0 30 110
    endloop
  endfacet
  facet normal 0.45 0 0.89
    outer loop
      vertex 220 0 0
      vertex 0 30 110
      vertex 0 0 110
    endloop
  endfacet
endsolid LaptopStand
